<svg width="172" height="40" viewBox="0 0 172 40" fill="none" xmlns="http://www.w3.org/2000/svg">
<rect width="172" height="40" fill="#E5E5E5"/>
<g id="Home">
<rect width="1440" height="4942.01" transform="translate(-184 -16)" fill="white"/>
<g id="Group 56">
<g id="Header " filter="url(#filter0_d_105_800)">
<g id="BG" filter="url(#filter1_d_105_800)">
<rect x="-184" y="-16" width="1440" height="72" fill="white"/>
</g>
<g id="Group 27">
<g id="Frame" clip-path="url(#clip0_105_800)">
<path id="Vector" d="M20 0C8.9543 0 0 8.9543 0 20C11.0457 20 20 11.0457 20 0Z" fill="#023F3A"/>
<path id="Vector_2" d="M20 40C31.0457 40 40 31.0457 40 20C28.9543 20 20 28.9543 20 40Z" fill="#023F3A"/>
<path id="Vector_3" d="M20 0C31.0457 0 40 8.9543 40 20C28.9543 20 20 11.0457 20 0Z" fill="#C13512"/>
<path id="Vector_4" d="M20 40C8.9543 40 -9.65645e-07 31.0457 0 20C11.0457 20 20 28.9543 20 40Z" fill="#C13512"/>
</g>
<path id="Farmino" d="M62.415 11.852V14.79H54.849V19.444H60.647V22.33H54.849V30H51.209V11.852H62.415ZM64.0601 22.746C64.0601 21.29 64.3461 19.9987 64.9181 18.872C65.5075 17.7453 66.2961 16.8787 67.2841 16.272C68.2895 15.6653 69.4075 15.362 70.6381 15.362C71.7128 15.362 72.6488 15.5787 73.4461 16.012C74.2608 16.4453 74.9108 16.9913 75.3961 17.65V15.596H79.0621V30H75.3961V27.894C74.9281 28.57 74.2781 29.1333 73.4461 29.584C72.6315 30.0173 71.6868 30.234 70.6121 30.234C69.3988 30.234 68.2895 29.922 67.2841 29.298C66.2961 28.674 65.5075 27.7987 64.9181 26.672C64.3461 25.528 64.0601 24.2193 64.0601 22.746ZM75.3961 22.798C75.3961 21.914 75.2228 21.16 74.8761 20.536C74.5295 19.8947 74.0615 19.4093 73.4721 19.08C72.8828 18.7333 72.2501 18.56 71.5741 18.56C70.8981 18.56 70.2741 18.7247 69.7021 19.054C69.1301 19.3833 68.6621 19.8687 68.2981 20.51C67.9515 21.134 67.7781 21.8793 67.7781 22.746C67.7781 23.6127 67.9515 24.3753 68.2981 25.034C68.6621 25.6753 69.1301 26.1693 69.7021 26.516C70.2915 26.8627 70.9155 27.036 71.5741 27.036C72.2501 27.036 72.8828 26.8713 73.4721 26.542C74.0615 26.1953 74.5295 25.71 74.8761 25.086C75.2228 24.4447 75.3961 23.682 75.3961 22.798ZM86.2572 17.832C86.7252 17.0693 87.3319 16.4713 88.0772 16.038C88.8399 15.6047 89.7066 15.388 90.6772 15.388V19.21H89.7152C88.5712 19.21 87.7046 19.4787 87.1152 20.016C86.5432 20.5533 86.2572 21.4893 86.2572 22.824V30H82.6172V15.596H86.2572V17.832ZM111.017 15.388C112.785 15.388 114.206 15.934 115.281 17.026C116.373 18.1007 116.919 19.6087 116.919 21.55V30H113.279V22.044C113.279 20.9173 112.993 20.0593 112.421 19.47C111.849 18.8633 111.069 18.56 110.081 18.56C109.093 18.56 108.304 18.8633 107.715 19.47C107.143 20.0593 106.857 20.9173 106.857 22.044V30H103.217V22.044C103.217 20.9173 102.931 20.0593 102.359 19.47C101.787 18.8633 101.007 18.56 100.019 18.56C99.0136 18.56 98.2163 18.8633 97.627 19.47C97.055 20.0593 96.769 20.9173 96.769 22.044V30H93.129V15.596H96.769V17.338C97.237 16.7313 97.835 16.2547 98.563 15.908C99.3083 15.5613 100.123 15.388 101.007 15.388C102.134 15.388 103.139 15.6307 104.023 16.116C104.907 16.584 105.592 17.26 106.077 18.144C106.545 17.312 107.221 16.6447 108.105 16.142C109.006 15.6393 109.977 15.388 111.017 15.388ZM122.219 13.88C121.578 13.88 121.04 13.6807 120.607 13.282C120.191 12.866 119.983 12.3547 119.983 11.748C119.983 11.1413 120.191 10.6387 120.607 10.24C121.04 9.824 121.578 9.616 122.219 9.616C122.86 9.616 123.389 9.824 123.805 10.24C124.238 10.6387 124.455 11.1413 124.455 11.748C124.455 12.3547 124.238 12.866 123.805 13.282C123.389 13.6807 122.86 13.88 122.219 13.88ZM124.013 15.596V30H120.373V15.596H124.013ZM135.591 15.388C137.307 15.388 138.694 15.934 139.751 17.026C140.809 18.1007 141.337 19.6087 141.337 21.55V30H137.697V22.044C137.697 20.9 137.411 20.0247 136.839 19.418C136.267 18.794 135.487 18.482 134.499 18.482C133.494 18.482 132.697 18.794 132.107 19.418C131.535 20.0247 131.249 20.9 131.249 22.044V30H127.609V15.596H131.249V17.39C131.735 16.766 132.35 16.2807 133.095 15.934C133.858 15.57 134.69 15.388 135.591 15.388ZM151.195 30.234C149.808 30.234 148.56 29.9307 147.451 29.324C146.342 28.7 145.466 27.8247 144.825 26.698C144.201 25.5713 143.889 24.2713 143.889 22.798C143.889 21.3247 144.21 20.0247 144.851 18.898C145.51 17.7713 146.402 16.9047 147.529 16.298C148.656 15.674 149.912 15.362 151.299 15.362C152.686 15.362 153.942 15.674 155.069 16.298C156.196 16.9047 157.08 17.7713 157.721 18.898C158.38 20.0247 158.709 21.3247 158.709 22.798C158.709 24.2713 158.371 25.5713 157.695 26.698C157.036 27.8247 156.135 28.7 154.991 29.324C153.864 29.9307 152.599 30.234 151.195 30.234ZM151.195 27.062C151.854 27.062 152.469 26.906 153.041 26.594C153.63 26.2647 154.098 25.7793 154.445 25.138C154.792 24.4967 154.965 23.7167 154.965 22.798C154.965 21.4287 154.601 20.38 153.873 19.652C153.162 18.9067 152.287 18.534 151.247 18.534C150.207 18.534 149.332 18.9067 148.621 19.652C147.928 20.38 147.581 21.4287 147.581 22.798C147.581 24.1673 147.919 25.2247 148.595 25.97C149.288 26.698 150.155 27.062 151.195 27.062Z" fill="#222222"/>
</g>
</g>
</g>
</g>
<defs>
<filter id="filter0_d_105_800" x="-197" y="-26" width="1466" height="98" filterUnits="userSpaceOnUse" color-interpolation-filters="sRGB">
<feFlood flood-opacity="0" result="BackgroundImageFix"/>
<feColorMatrix in="SourceAlpha" type="matrix" values="0 0 0 0 0 0 0 0 0 0 0 0 0 0 0 0 0 0 127 0" result="hardAlpha"/>
<feOffset dy="3"/>
<feGaussianBlur stdDeviation="6.5"/>
<feComposite in2="hardAlpha" operator="out"/>
<feColorMatrix type="matrix" values="0 0 0 0 0 0 0 0 0 0 0 0 0 0 0 0 0 0 0.1 0"/>
<feBlend mode="normal" in2="BackgroundImageFix" result="effect1_dropShadow_105_800"/>
<feBlend mode="normal" in="SourceGraphic" in2="effect1_dropShadow_105_800" result="shape"/>
</filter>
<filter id="filter1_d_105_800" x="-184" y="-16" width="1440" height="73" filterUnits="userSpaceOnUse" color-interpolation-filters="sRGB">
<feFlood flood-opacity="0" result="BackgroundImageFix"/>
<feColorMatrix in="SourceAlpha" type="matrix" values="0 0 0 0 0 0 0 0 0 0 0 0 0 0 0 0 0 0 127 0" result="hardAlpha"/>
<feOffset dy="1"/>
<feColorMatrix type="matrix" values="0 0 0 0 0.898039 0 0 0 0 0.913725 0 0 0 0 0.94902 0 0 0 1 0"/>
<feBlend mode="normal" in2="BackgroundImageFix" result="effect1_dropShadow_105_800"/>
<feBlend mode="normal" in="SourceGraphic" in2="effect1_dropShadow_105_800" result="shape"/>
</filter>
<clipPath id="clip0_105_800">
<rect width="172" height="40" fill="white"/>
</clipPath>
</defs>
</svg>
